<svg width="15" height="14" viewBox="0 0 15 14" fill="none" xmlns="http://www.w3.org/2000/svg">
<path id="Vector" d="M1.15385 13H3.75V10.75H1.15385V13ZM4.32692 13H7.21154V10.75H4.32692V13ZM1.15385 10.25H3.75V7.75H1.15385V10.25ZM4.32692 10.25H7.21154V7.75H4.32692V10.25ZM1.15385 7.25H3.75V5H1.15385V7.25ZM7.78846 13H10.6731V10.75H7.78846V13ZM4.32692 7.25H7.21154V5H4.32692V7.25ZM11.25 13H13.8462V10.75H11.25V13ZM7.78846 10.25H10.6731V7.75H7.78846V10.25ZM4.61538 3.5V1.25C4.61538 1.11719 4.48017 1 4.32692 1H3.75C3.59675 1 3.46154 1.11719 3.46154 1.25V3.5C3.46154 3.63281 3.59675 3.75 3.75 3.75H4.32692C4.48017 3.75 4.61538 3.63281 4.61538 3.5ZM11.25 10.25H13.8462V7.75H11.25V10.25ZM7.78846 7.25H10.6731V5H7.78846V7.25ZM11.25 7.25H13.8462V5H11.25V7.25ZM11.5385 3.5V1.25C11.5385 1.11719 11.4032 1 11.25 1H10.6731C10.5198 1 10.3846 1.11719 10.3846 1.25V3.5C10.3846 3.63281 10.5198 3.75 10.6731 3.75H11.25C11.4032 3.75 11.5385 3.63281 11.5385 3.5ZM15 3V13C15 13.5469 14.4772 14 13.8462 14H1.15385C0.522837 14 0 13.5469 0 13V3C0 2.45312 0.522837 2 1.15385 2H2.30769V1.25C2.30769 0.5625 2.95673 0 3.75 0H4.32692C5.12019 0 5.76923 0.5625 5.76923 1.25V2H9.23077V1.25C9.23077 0.5625 9.87981 0 10.6731 0H11.25C12.0433 0 12.6923 0.5625 12.6923 1.25V2H13.8462C14.4772 2 15 2.45312 15 3Z" fill="white"/>
</svg>
