<svg width="17" height="14" viewBox="0 0 17 14" fill="none" xmlns="http://www.w3.org/2000/svg">
<g id="&#240;&#159;&#166;&#134; icon &#34;check square o&#34;">
<path id="Vector" d="M14 7.97443V11.1364C14 12.7173 12.7173 14 11.1364 14H2.86364C1.28267 14 0 12.7173 0 11.1364V2.86364C0 1.28267 1.28267 0 2.86364 0H11.1364C11.5341 0 11.9318 0.0795455 12.2997 0.24858C12.3892 0.288352 12.4588 0.377841 12.4787 0.477273C12.4986 0.586648 12.4688 0.68608 12.3892 0.765625L11.902 1.25284C11.8423 1.3125 11.7528 1.35227 11.6733 1.35227C11.6435 1.35227 11.6136 1.34233 11.5838 1.33239C11.4347 1.29261 11.2855 1.27273 11.1364 1.27273H2.86364C1.98864 1.27273 1.27273 1.98864 1.27273 2.86364V11.1364C1.27273 12.0114 1.98864 12.7273 2.86364 12.7273H11.1364C12.0114 12.7273 12.7273 12.0114 12.7273 11.1364V8.6108C12.7273 8.53125 12.7571 8.4517 12.8168 8.39205L13.4531 7.75568C13.5227 7.68608 13.6023 7.65625 13.6818 7.65625C13.7216 7.65625 13.7614 7.66619 13.8011 7.68608C13.9205 7.7358 14 7.84517 14 7.97443ZM16.2969 3.11222L8.20312 11.206C7.88494 11.5241 7.38778 11.5241 7.0696 11.206L2.79403 6.9304C2.47585 6.61222 2.47585 6.11506 2.79403 5.79688L3.88778 4.70312C4.20597 4.38494 4.70312 4.38494 5.02131 4.70312L7.63636 7.31818L14.0696 0.884943C14.3878 0.566761 14.8849 0.566761 15.2031 0.884943L16.2969 1.97869C16.6151 2.29688 16.6151 2.79403 16.2969 3.11222Z" fill="white"/>
</g>
</svg>
