<svg width="20" height="16" viewBox="0 0 20 16" fill="none" xmlns="http://www.w3.org/2000/svg">
<path id="Vector" d="M20 13.8182V15.2727C20 15.6705 19.6763 16 19.2857 16H0.714286C0.323661 16 0 15.6705 0 15.2727V13.8182C0 13.4205 0.323661 13.0909 0.714286 13.0909H19.2857C19.6763 13.0909 20 13.4205 20 13.8182ZM15.7143 9.45455V10.9091C15.7143 11.3068 15.3906 11.6364 15 11.6364H0.714286C0.323661 11.6364 0 11.3068 0 10.9091V9.45455C0 9.05682 0.323661 8.72727 0.714286 8.72727H15C15.3906 8.72727 15.7143 9.05682 15.7143 9.45455ZM18.5714 5.09091V6.54545C18.5714 6.94318 18.2478 7.27273 17.8571 7.27273H0.714286C0.323661 7.27273 0 6.94318 0 6.54545V5.09091C0 4.69318 0.323661 4.36364 0.714286 4.36364H17.8571C18.2478 4.36364 18.5714 4.69318 18.5714 5.09091ZM14.2857 0.727273V2.18182C14.2857 2.57955 13.9621 2.90909 13.5714 2.90909H0.714286C0.323661 2.90909 0 2.57955 0 2.18182V0.727273C0 0.329545 0.323661 0 0.714286 0H13.5714C13.9621 0 14.2857 0.329545 14.2857 0.727273Z" fill="white"/>
</svg>
