<svg width="14" height="13" viewBox="0 0 14 13" fill="none" xmlns="http://www.w3.org/2000/svg">
<g id="&#240;&#159;&#166;&#134; icon &#34;clock o&#34;">
<path id="Vector" d="M8.16667 3.52083V7.3125C8.16667 7.46484 8.03906 7.58333 7.875 7.58333H4.95833C4.79427 7.58333 4.66667 7.46484 4.66667 7.3125V6.77083C4.66667 6.61849 4.79427 6.5 4.95833 6.5H7V3.52083C7 3.36849 7.1276 3.25 7.29167 3.25H7.875C8.03906 3.25 8.16667 3.36849 8.16667 3.52083ZM11.9583 6.5C11.9583 3.96094 9.73438 1.89583 7 1.89583C4.26562 1.89583 2.04167 3.96094 2.04167 6.5C2.04167 9.03906 4.26562 11.1042 7 11.1042C9.73438 11.1042 11.9583 9.03906 11.9583 6.5ZM14 6.5C14 10.0885 10.8646 13 7 13C3.13542 13 0 10.0885 0 6.5C0 2.91146 3.13542 0 7 0C10.8646 0 14 2.91146 14 6.5Z" fill="white"/>
</g>
</svg>
