<svg width="12" height="16" viewBox="0 0 12 16" fill="none" xmlns="http://www.w3.org/2000/svg">
<path d="M11.8261 1.33066C11.8261 1.45892 11.7448 1.60321 11.6229 1.6994L3.63723 8L11.6229 14.3006C11.7448 14.3968 11.8261 14.5411 11.8261 14.6693C11.8261 14.7976 11.7448 14.9419 11.6229 15.0381L10.6069 15.8397C10.485 15.9359 10.3021 16 10.1395 16C9.97699 16 9.79411 15.9359 9.6722 15.8397L0.203197 8.36874C0.0812789 8.27254 0 8.12826 0 8C0 7.87174 0.0812789 7.72746 0.203197 7.63126L9.6722 0.160321C9.79411 0.0641283 9.97699 0 10.1395 0C10.3021 0 10.485 0.0641283 10.6069 0.160321L11.6229 0.961924C11.7448 1.05812 11.8261 1.18637 11.8261 1.33066Z" fill="#63D9F3"/>
</svg>
