<svg width="18" height="18" viewBox="0 0 18 18" fill="none" xmlns="http://www.w3.org/2000/svg">
<g id="&#240;&#159;&#166;&#134; icon &#34;plus&#34;">
<path id="Vector" d="M17.1471 7.40443V9.74267C17.1471 10.3881 16.6234 10.9118 15.978 10.9118H10.9118V15.978C10.9118 16.6234 10.3881 17.1471 9.74267 17.1471H7.40443C6.75898 17.1471 6.23531 16.6234 6.23531 15.978V10.9118H1.16912C0.523669 10.9118 0 10.3881 0 9.74267V7.40443C0 6.75898 0.523669 6.23531 1.16912 6.23531H6.23531V1.16912C6.23531 0.523669 6.75898 0 7.40443 0H9.74267C10.3881 0 10.9118 0.523669 10.9118 1.16912V6.23531H15.978C16.6234 6.23531 17.1471 6.75898 17.1471 7.40443Z" fill="white"/>
</g>
</svg>
